<svg xmlns="http://www.w3.org/2000/svg" viewBox="0 0 279.63 51.28"><g data-name="Слой 2"><g data-name="Слой 1"><path d="M0 13.6h7.15l-2.4-4.15c0-4.21 4.64-9.45 13-9.45a29.47 29.47 0 017.86 1.15l-2.29 8.13a12.23 12.23 0 00-3.72-.71c-2.13 0-5 .82-5 3.88v1.15h9.29v7.75h-9.2v11.74h9v7.81H0v-7.81h4.75V21.35H0zm27.85 13.65c0-8.79 7.32-14.47 18.4-14.47s18.4 5.68 18.4 14.47-7.37 14.47-18.4 14.47-18.4-5.72-18.4-14.47zm26.59 0c0-4.32-3.06-7.59-8.19-7.59S38 22.93 38 27.25s3.12 7.59 8.25 7.59 8.19-3.28 8.19-7.59zm24.9 2.13c0 3.65 1.75 5.46 5 5.46a7.53 7.53 0 007.81-7.59V13.6h9.94v27.3h-9.92v-4.53a14.89 14.89 0 01-11.68 5.35c-6.77 0-11.09-4-11.09-10.82V13.6h9.94zm40.79-2.13V40.9h-9.83V13.6h9.83v4.53A15.12 15.12 0 01132 12.78c6.22 0 9.77 3.55 11.41 10.15l4.37 18h-10l-3.6-15c-.88-3.66-2.46-6.28-5.9-6.28-4.71.01-8.15 3.23-8.15 7.6zm45.76-14.47a15.54 15.54 0 0112 5.35V.76h9.93V40.9h-9.93v-4.53a15.54 15.54 0 01-12 5.35c-8.36 0-15-5.79-15-14.47s6.64-14.47 15-14.47zm3.6 22.06c5.08 0 8.36-3.33 8.36-7.59s-3.28-7.59-8.36-7.59-8.35 3.27-8.35 7.59 3.22 7.59 8.35 7.59zM223.35 18c-4.31.33-7.21 4.42-6.6 10.05 6.71-1.48 11.3-2.52 12.17-4.43 2.13-2.27-.38-6.42-5.57-5.62z"/><path d="M273.32.68h-6V40.9h-5.89v-5.68a11.65 11.65 0 01-10.27 6.5 11.38 11.38 0 01-9.91-5.9c-3.32 2.17-12.87 5.9-16.46 5.9-8.3 0-14.36-6-14.36-14.47s5.18-14.2 12.66-14.47c9.72-.33 14.64 8.73 8.41 13.43-.76 1.75-3.93 3.06-14.19 5.19a8.41 8.41 0 008.08 5.07c2.53 0 10.6-3.22 14.14-5.15a18.94 18.94 0 01-.44-4.07c0-8.63 5.3-14.47 12.07-14.47a11.64 11.64 0 0110.27 6.49V.68h-60.3a2.72 2.72 0 00-2.72 2.72v22.7a25.19 25.19 0 0025.18 25.18h49.69a6.32 6.32 0 006.35-6.28V7a6.31 6.31 0 00-6.31-6.32z"/><path d="M253.28 18c-4.81 0-8 3.88-8 9.23s3.22 9.22 8 9.22 8.19-4 8.19-9.22-3.39-9.23-8.19-9.23z"/></g></g></svg>