<svg width="617" height="603" fill="none" xmlns="http://www.w3.org/2000/svg"><path d="M9.177 154.687c-42.955-155.656 116.167-171.5 231-124.5 67 24.171 111-51 194-21s-16.499 124.5 110.501 173 64.999 265.5-46.001 268-80.5 39-191.5 122.5-298-32.5-251.5-155 0-94.5-46.5-263z" stroke="#fff" stroke-width="3"/><path d="M248.075 275.825C243.119 261 266.333 237.083 285 247.29c17.093 9.347 34.5 3.043 46 7.21 30.275 10.97 19.139 16.777 32.673 29.805 16.468 15.855 24.327 57.37-13.534 57.37-31.139 0-21.822 15.124-45.139 21.825-23.317 6.701-49.76-4.706-49.76-34.737 0-11.278 1.09-28.246-7.165-52.938z" stroke="#fff" stroke-width="3"/><path d="M30.892 164.943C-8.608 22.09 138.158 5.512 244.25 49.167 306.712 71.991 348.295 3.08 424.795 30.732c78.206 28.27-13.26 114.707 103.425 159.982 116.951 45.532 61.302 246.579-43.049 248.852-103.74 2.272-75.166 36.829-178.195 113.347-103.028 76.519-275.432-29.973-233.16-144.067 42.273-112.389.099-88.476-42.924-243.903z" stroke="#fff" stroke-width="3"/><path d="M52.607 175.2C16.561 45.15 150.973 27.838 248.321 68.148c57.926 21.476 97.091-41.174 167.091-15.87 73.414 26.54-10.02 104.913 96.35 146.964 106.903 42.564 57.604 227.658-40.098 229.703-96.479 2.046-69.831 34.659-164.889 104.196-95.057 69.536-252.865-27.447-214.82-133.134 38.046-102.278.198-82.454-39.348-224.807z" stroke="#fff" stroke-width="3"/><path d="M74.323 185.457C41.73 68.21 163.786 50.164 252.392 87.129c53.389 20.129 90.136-36.26 153.636-13.306 68.621 24.81-6.78 95.121 89.275 133.947 96.855 39.597 53.907 208.737-37.146 210.555-89.22 1.818-64.497 32.489-151.583 95.043-87.087 62.555-230.298-24.919-196.48-122.201 33.818-92.166.297-76.43-35.772-205.71z" stroke="#fff" stroke-width="3"/><path d="M96.038 195.715C66.9 91.271 176.602 72.491 256.465 106.112c48.852 18.78 83.182-31.348 140.182-10.742 63.827 23.08-3.54 85.328 82.199 120.929 86.807 36.629 50.21 189.816-34.194 191.407-81.96 1.591-59.162 30.318-138.278 85.891-79.115 55.573-207.73-22.393-178.14-111.268 29.591-82.056.396-70.407-32.196-186.614z" stroke="#fff" stroke-width="3"/><path d="M117.754 206.493c-25.683-91.642 71.662-111.155 142.784-80.879 44.315 17.433 76.227-26.435 126.727-8.178 59.034 21.35-.301 75.535 75.124 107.912 76.758 33.661 46.512 170.895-31.243 172.259-74.699 1.363-53.828 28.147-124.972 76.738-71.144 48.592-185.164-19.866-159.8-100.335 25.363-71.944.495-64.384-28.62-167.517z" stroke="#fff" stroke-width="3"/><path d="M139.47 217.886c-22.229-78.839 62.762-99.087 125.14-72.156 39.779 16.086 69.273-21.522 113.273-5.612 54.241 19.62 2.94 65.741 68.049 94.893 66.71 30.694 42.815 151.974-28.291 153.111-67.44 1.136-48.494 25.977-111.667 67.586-63.173 41.61-162.597-17.339-141.46-89.402 21.136-61.833.594-58.361-25.044-148.42z" stroke="#fff" stroke-width="3"/><path d="M161.186 229.313c-18.774-66.037 53.861-87.018 107.498-63.432 35.241 14.738 62.318-16.609 99.818-3.048 49.448 17.89 6.179 55.949 60.973 81.876 56.662 27.726 39.118 133.053-25.339 133.962-60.18.909-43.16 23.806-98.361 58.435-55.202 34.628-140.03-14.813-123.121-78.47 16.909-51.722.694-52.337-21.468-129.323z" stroke="#fff" stroke-width="3"/><path d="M182.904 240.789c-15.32-53.234 44.96-74.949 89.854-54.708 30.704 13.39 55.363-11.696 86.363-.483 44.655 16.16 9.42 46.155 53.899 68.858 46.613 24.758 35.42 114.132-22.388 114.814-52.92.682-37.825 21.636-85.056 49.282-47.231 27.646-117.462-12.286-104.78-67.536 12.682-41.611.793-46.315-17.892-110.227z" stroke="#fff" stroke-width="3"/><path d="M204.622 252.337c-11.865-40.431 36.06-62.88 72.212-45.983 26.167 12.042 48.409-6.783 72.909 2.081 39.861 14.43 12.659 36.362 46.823 55.84 36.565 21.79 31.722 95.212-19.437 95.666-45.659.455-32.491 19.465-71.75 40.13-39.259 20.664-94.895-9.759-86.44-56.603 8.454-31.5.892-40.292-14.317-91.131z" stroke="#fff" stroke-width="3"/><path d="M226.345 263.996c-8.411-27.628 27.159-50.811 54.568-37.26 21.63 10.695 41.454-1.87 59.454 4.646 35.068 12.7 15.899 26.57 39.748 42.823 26.517 18.822 28.025 76.29-16.485 76.517-38.399.228-27.156 17.295-58.445 30.978-31.288 13.683-72.327-7.233-68.1-45.67 4.227-21.389.991-34.269-10.74-72.034z" stroke="#fff" stroke-width="3"/></svg>