<svg xmlns="http://www.w3.org/2000/svg" viewBox="0 0 279.63 51.28"><g id="Слой_2" data-name="Слой 2"><g id="Слой_1-2" data-name="Слой 1"><path d="M0,13.6H7.15L4.75,9.45C4.75,5.24,9.39,0,17.75,0a29.47,29.47,0,0,1,7.86,1.15L23.32,9.28a12.23,12.23,0,0,0-3.72-.71c-2.13,0-5,.82-5,3.88V13.6h9.29v7.75H14.69V33.09h9V40.9H0V33.09H4.75V21.35H0Z"/><path d="M27.85,27.25c0-8.79,7.32-14.47,18.4-14.47s18.4,5.68,18.4,14.47-7.37,14.47-18.4,14.47S27.85,36,27.85,27.25Zm26.59,0c0-4.32-3.06-7.59-8.19-7.59S38,22.93,38,27.25s3.12,7.59,8.25,7.59S54.44,31.56,54.44,27.25Z"/><path d="M79.34,29.38c0,3.65,1.75,5.46,5,5.46a7.53,7.53,0,0,0,7.81-7.59V13.6h9.94V40.9H92.17V36.37a14.89,14.89,0,0,1-11.68,5.35c-6.77,0-11.09-4-11.09-10.82V13.6h9.94Z"/><path d="M120.13,27.25V40.9H110.3V13.6h9.83v4.53A15.12,15.12,0,0,1,132,12.78c6.22,0,9.77,3.55,11.41,10.15l4.37,18h-10l-3.6-15c-.88-3.66-2.46-6.28-5.9-6.28C123.57,19.66,120.13,22.88,120.13,27.25Z"/><path d="M165.89,12.78a15.54,15.54,0,0,1,12,5.35V.76h9.93V40.9h-9.93V36.37a15.54,15.54,0,0,1-12,5.35c-8.36,0-15-5.79-15-14.47S157.53,12.78,165.89,12.78Zm3.6,22.06c5.08,0,8.36-3.33,8.36-7.59s-3.28-7.59-8.36-7.59-8.35,3.27-8.35,7.59S164.36,34.84,169.49,34.84Z"/><path d="M223.35,18c-4.31.33-7.21,4.42-6.6,10.05,6.71-1.48,11.3-2.52,12.17-4.43C231.05,21.35,228.54,17.2,223.35,18Z"/><path d="M273.32.68h-6V40.9h-5.89V35.22a11.65,11.65,0,0,1-10.27,6.5,11.38,11.38,0,0,1-9.91-5.9c-3.32,2.17-12.87,5.9-16.46,5.9-8.3,0-14.36-6-14.36-14.47s5.18-14.2,12.66-14.47c9.72-.33,14.64,8.73,8.41,13.43-.76,1.75-3.93,3.06-14.19,5.19a8.41,8.41,0,0,0,8.08,5.07c2.53,0,10.6-3.22,14.14-5.15a18.94,18.94,0,0,1-.44-4.07c0-8.63,5.3-14.47,12.07-14.47a11.64,11.64,0,0,1,10.27,6.49V.68h-60.3a2.72,2.72,0,0,0-2.72,2.72V26.1a25.19,25.19,0,0,0,25.18,25.18h49.69A6.32,6.32,0,0,0,279.63,45V7A6.31,6.31,0,0,0,273.32.68Z"/><path d="M253.28,18c-4.81,0-8,3.88-8,9.23s3.22,9.22,8,9.22,8.19-4,8.19-9.22S258.08,18,253.28,18Z"/></g></g></svg>